<?xml version="1.0" standalone="no"?><!DOCTYPE svg PUBLIC "-//W3C//DTD SVG 1.1//EN" "http://www.w3.org/Graphics/SVG/1.1/DTD/svg11.dtd"><svg t="1603350565524" class="icon" viewBox="0 0 1024 1024" version="1.1" xmlns="http://www.w3.org/2000/svg" p-id="12211" xmlns:xlink="http://www.w3.org/1999/xlink" width="200" height="200"><defs><style type="text/css"></style></defs><path d="M512 779.1c-143.5 0-260.5-120.4-260.5-267.1 0-148.4 117.1-267.1 260.5-267.1 143.5 0 260.5 120.4 260.5 267.1 0 146.8-115.4 267.1-260.5 267.1z m0-613.4c-186.3 0-336.4 155-336.4 346.3S325.7 858.3 512 858.3c186.3 0 336.4-155 336.4-346.3C850 320.7 698.3 165.7 512 165.7z" fill="#faad14" p-id="12212"></path><path d="M512 317.4c-31.3 0-57.7 21.4-57.7 47.8L472.4 540c0 26.4 8.2 44.5 39.6 44.5s39.6-14.8 39.6-41.2l18.1-179.7c0-24.7-26.4-46.2-57.7-46.2zM182.2 719.8c-36.3-61-57.7-131.9-57.7-207.8 0-75.8 19.8-146.8 56.1-206.1 3.3-4.9 4.9-9.9 4.9-16.5 0-16.5-13.2-29.7-28-29.7-9.9 0-18.1 4.9-23.1 13.2-42.9 69.3-66 151.7-66 240.7 0 87.4 23.1 168.2 64.3 237.4 0 1.6 1.6 3.3 1.6 3.3 4.9 6.6 13.2 11.5 23.1 11.5 16.5 0 28-13.2 28-29.7 1.7-6.4 0.1-11.4-3.2-16.3z m710.7-445.2c0-1.6-1.6-1.6-1.6-3.3-4.9-8.2-13.2-13.2-23.1-13.2-16.5 0-28 13.2-28 29.7 0 6.6 1.6 11.5 4.9 16.5 36.3 61 56.1 130.3 56.1 206.1 0 75.9-21.4 146.8-57.7 207.8-3.3 4.9-4.9 9.9-4.9 16.5 0 16.5 13.2 29.7 28 29.7 9.9 0 18.1-4.9 23.1-11.5 0-1.6 1.6-1.6 1.6-3.3 41.2-69.3 64.3-150.1 64.3-237.4 1.6-87.6-21.5-168.4-62.7-237.6zM469.1 665.3c0 24.6 19.2 44.5 42.9 44.5s42.9-19.9 42.9-44.5-19.2-44.5-42.9-44.5-42.9 20-42.9 44.5z" fill="#faad14" p-id="12213"></path></svg>