<?xml version="1.0" standalone="no"?><!DOCTYPE svg PUBLIC "-//W3C//DTD SVG 1.1//EN" "http://www.w3.org/Graphics/SVG/1.1/DTD/svg11.dtd"><svg t="1603347504442" class="icon" viewBox="0 0 1024 1024" version="1.1" xmlns="http://www.w3.org/2000/svg" p-id="3096" xmlns:xlink="http://www.w3.org/1999/xlink" width="200" height="200"><defs><style type="text/css"></style></defs><path d="M934.4 768c-4.266667 8.533333-17.066667 12.8-29.866667 8.533333l-140.8-81.066666 34.133334 123.733333c4.266667 12.8-4.266667 21.333333-17.066667 25.6s-21.333333-4.266667-25.6-17.066667l-42.666667-166.4-200.533333-110.933333v230.4l119.466667 123.733333c8.533333 8.533333 8.533333 21.333333 0 29.866667-8.533333 8.533333-21.333333 8.533333-29.866667 0L512 840.533333v162.133334c0 12.8-8.533333 21.333333-21.333333 21.333333s-21.333333-8.533333-21.333334-21.333333v-162.133334l-89.6 89.6c-8.533333 8.533333-21.333333 8.533333-29.866666 0-8.533333-8.533333-8.533333-21.333333 0-29.866666l123.733333-123.733334v-230.4l-200.533333 115.2-42.666667 166.4c-4.266667 12.8-12.8 17.066667-25.6 17.066667-12.8-4.266667-17.066667-12.8-17.066667-25.6l34.133334-123.733333-140.8 81.066666c-8.533333 4.266667-21.333333 4.266667-29.866667-8.533333-4.266667-8.533333-4.266667-21.333333 8.533333-29.866667l140.8-81.066666-123.733333-34.133334c-12.8-4.266667-17.066667-12.8-17.066667-25.6 4.266667-12.8 12.8-17.066667 25.6-17.066666l166.4 42.666666 200.533334-115.2-204.8-110.933333-166.4 42.666667c-12.8 4.266667-21.333333-4.266667-25.6-17.066667-4.266667-8.533333 4.266667-21.333333 12.8-21.333333l123.733333-34.133334-136.533333-81.066666C42.666667 277.333333 42.666667 264.533333 46.933333 256s17.066667-12.8 29.866667-8.533333l140.8 81.066666-34.133333-123.733333c-4.266667-12.8 4.266667-25.6 12.8-25.6s21.333333 4.266667 25.6 17.066667l42.666666 166.4 200.533334 115.2V243.2L345.6 119.466667c-4.266667-4.266667-4.266667-21.333333 0-29.866667s21.333333-8.533333 29.866667 0L469.333333 183.466667V21.333333c0-12.8 8.533333-21.333333 21.333334-21.333333s21.333333 8.533333 21.333333 21.333333v162.133334l89.6-93.866667c8.533333-8.533333 21.333333-8.533333 29.866667 0s8.533333 21.333333 0 29.866667L512 243.2v230.4l200.533333-115.2 42.666667-166.4c4.266667-12.8 12.8-17.066667 25.6-17.066667 12.8 4.266667 17.066667 12.8 17.066667 25.6l-34.133334 123.733334 140.8-81.066667c8.533333-4.266667 21.333333-4.266667 29.866667 8.533333s4.266667 21.333333-8.533333 29.866667l-140.8 81.066667 123.733333 34.133333c12.8 4.266667 17.066667 12.8 17.066667 25.6-4.266667 12.8-12.8 17.066667-25.6 17.066667l-166.4-46.933334-200.533334 119.466667 200.533334 115.2 166.4-46.933333c12.8-4.266667 21.333333 4.266667 25.6 17.066666 4.266667 12.8-4.266667 21.333333-17.066667 25.6l-123.733333 34.133334 140.8 81.066666c12.8 8.533333 12.8 21.333333 8.533333 29.866667z" p-id="3097" fill="#52c41a"></path></svg>