<?xml version="1.0" encoding="iso-8859-1"?>
<!-- Generator: Adobe Illustrator 18.0.0, SVG Export Plug-In . SVG Version: 6.00 Build 0)  -->
<!DOCTYPE svg PUBLIC "-//W3C//DTD SVG 1.1//EN" "http://www.w3.org/Graphics/SVG/1.1/DTD/svg11.dtd">
<svg version="1.1" id="Capa_1" xmlns="http://www.w3.org/2000/svg" xmlns:xlink="http://www.w3.org/1999/xlink" x="0px" y="0px"
	 viewBox="0 0 490 490" style="enable-background:new 0 0 490 490;" xml:space="preserve">
<g>
	<path fill="#73d13d" d="M425,79.859H65c-35.841,0-65,29.159-65,65v189c0,35.841,29.159,65,65,65h32.182c-0.054,0.421-0.091,0.847-0.091,1.282
		c0,5.522,4.477,10,10,10h40.498c5.523,0,10-4.478,10-10c0-0.436-0.037-0.861-0.091-1.282h175.007
		c-0.054,0.421-0.091,0.847-0.091,1.282c0,5.522,4.477,10,10,10h40.498c5.523,0,10-4.478,10-10c0-0.436-0.037-0.861-0.091-1.282H425
		c35.841,0,65-29.159,65-65v-189C490,109.018,460.841,79.859,425,79.859z M460,333.859c0,19.299-15.701,35-35,35H65
		c-19.299,0-35-15.701-35-35v-189c0-19.299,15.701-35,35-35h360c19.299,0,35,15.701,35,35V333.859z"/>
	<path fill="#73d13d" d="M131.717,239.923c0-7.399,2.817-14.139,7.437-19.208l-31.548-5.985c-8.105-1.538-15.609,4.676-15.609,12.926v24.535
		c0,8.249,7.504,14.463,15.609,12.926l31.548-5.985C134.535,254.062,131.717,247.322,131.717,239.923z"/>
	<path fill="#73d13d" d="M212.88,214.73l-31.548,5.985c4.62,5.069,7.437,11.81,7.437,19.208c0,7.398-2.817,14.139-7.437,19.208l31.548,5.985
		c8.105,1.538,15.609-4.677,15.609-12.926v-24.535C228.489,219.406,220.985,213.192,212.88,214.73z"/>
	<path fill="#73d13d" d="M141.32,214.985c0.189,0.996,0.498,1.941,0.891,2.837c4.915-4.015,11.191-6.425,18.032-6.425
		c6.841,0,13.117,2.41,18.032,6.425c0.394-0.896,0.703-1.841,0.891-2.837l6.27-33.049c1.538-8.104-4.677-15.608-12.926-15.608
		h-24.535c-8.249,0-14.463,7.504-12.926,15.608L141.32,214.985z"/>
	<path fill="#73d13d" d="M179.167,264.861c-0.189-0.996-0.498-1.941-0.891-2.837c-4.915,4.015-11.191,6.425-18.032,6.425
		s-13.117-2.411-18.032-6.425c-0.394,0.896-0.703,1.842-0.891,2.837l-6.27,33.049c-1.538,8.104,4.677,15.608,12.926,15.608h24.535
		c8.249,0,14.463-7.504,12.926-15.608L179.167,264.861z"/>
	<circle cx="160.243" cy="239.923" r="18.924"/>
	<path fill="#73d13d" d="M160.243,134.556c-58.1,0-105.367,47.268-105.367,105.367s47.268,105.367,105.367,105.367S265.61,298.023,265.61,239.923
		S218.343,134.556,160.243,134.556z M160.243,325.291c-47.072,0-85.367-38.296-85.367-85.367s38.295-85.367,85.367-85.367
		s85.367,38.296,85.367,85.367S207.315,325.291,160.243,325.291z"/>
	<path fill="#73d13d" d="M418.567,156.328h-36.085c-5.523,0-10,4.478-10,10s4.477,10,10,10h36.085c5.523,0,10-4.478,10-10
		S424.09,156.328,418.567,156.328z"/>
</g>
<g>
</g>
<g>
</g>
<g>
</g>
<g>
</g>
<g>
</g>
<g>
</g>
<g>
</g>
<g>
</g>
<g>
</g>
<g>
</g>
<g>
</g>
<g>
</g>
<g>
</g>
<g>
</g>
<g>
</g>
</svg>
