<?xml version="1.0" encoding="iso-8859-1"?>
<!-- Generator: Adobe Illustrator 19.0.0, SVG Export Plug-In . SVG Version: 6.00 Build 0)  -->
<svg version="1.1" id="Capa_1" xmlns="http://www.w3.org/2000/svg" xmlns:xlink="http://www.w3.org/1999/xlink" x="0px" y="0px"
	 viewBox="0 0 297 297" style="enable-background:new 0 0 297 297;" xml:space="preserve">
<g>
	<path fill="#73d13d" d="M289.333,123H271v-16c0-4.418-3.249-8-7.667-8h-40c-4.418,0-8.333,3.582-8.333,8v33H82v-33c0-4.418-3.249-8-7.667-8h-40
		C29.915,99,26,102.582,26,107v16H8.333C3.915,123,0,126.582,0,131v35c0,4.418,3.915,8,8.333,8H26v16c0,4.418,3.915,8,8.333,8h40
		c4.418,0,7.667-3.582,7.667-8v-34h133v34c0,4.418,3.915,8,8.333,8h40c4.418,0,7.667-3.582,7.667-8v-16h18.333
		c4.418,0,7.667-3.582,7.667-8v-35C297,126.582,293.751,123,289.333,123z"/>
</g>
<g>
</g>
<g>
</g>
<g>
</g>
<g>
</g>
<g>
</g>
<g>
</g>
<g>
</g>
<g>
</g>
<g>
</g>
<g>
</g>
<g>
</g>
<g>
</g>
<g>
</g>
<g>
</g>
<g>
</g>
</svg>
