<svg viewBox="0 0 1024 1024" version="1.1"
    xmlns="http://www.w3.org/2000/svg" p-id="48664" height="18" width="18">
    <path d="M0 0h1024v1024H0z" fill="#FFFFFF" opacity="0" fillOpacity="1" p-id="48665"></path>
    <path d="M433.694118 228.894118h162.635294c6.023529 0 12.047059 0 18.070588-6.02353 6.023529-6.023529 6.023529-12.047059 6.023529-18.070588 0-6.023529 0-12.047059-6.023529-18.070588-6.023529-12.047059-12.047059-12.047059-18.070588-12.047059H433.694118c-12.047059 0-18.070588 0-18.070589 6.023529-6.023529 6.023529-12.047059 12.047059-12.047058 18.070589 0 6.023529 0 12.047059 6.023529 18.070588 6.023529 6.023529 12.047059 12.047059 24.094118 12.047059z m-138.541177 403.57647c-12.047059 0-18.070588 6.023529-30.117647 12.047059-6.023529 6.023529-12.047059 18.070588-12.047059 24.094118 0 12.047059 6.023529 18.070588 12.047059 24.094117 6.023529 6.023529 18.070588 12.047059 30.117647 12.047059s18.070588-6.023529 24.094118-12.047059c6.023529-6.023529 12.047059-18.070588 12.047059-24.094117 0-12.047059-6.023529-18.070588-12.047059-24.094118 0-6.023529-12.047059-12.047059-24.094118-12.047059z m469.835294 36.141177c0-12.047059-6.023529-18.070588-12.047059-24.094118-6.023529-6.023529-18.070588-12.047059-30.117647-12.047059s-18.070588 6.023529-30.117647 12.047059c-6.023529 6.023529-12.047059 18.070588-12.047058 24.094118 0 12.047059 6.023529 18.070588 12.047058 24.094117 6.023529 6.023529 18.070588 12.047059 30.117647 12.047059s18.070588-6.023529 30.117647-12.047059c6.023529-6.023529 12.047059-12.047059 12.047059-24.094117z m-30.117647 234.917647l-24.094117-48.188236H313.223529l-24.094117 48.188236H180.705882l114.447059-156.611765c-24.094118-6.023529-42.164706-18.070588-54.211765-36.141176-12.047059-18.070588-24.094118-42.164706-24.094117-66.258824V277.082353c0-12.047059 6.023529-30.117647 12.047059-42.164706 6.023529-12.047059 18.070588-24.094118 30.117647-36.141176 12.047059-6.023529 18.070588-18.070588 30.117647-24.094118 12.047059-6.023529 24.094118-12.047059 30.117647-18.070588 6.023529-6.023529 18.070588-6.023529 30.117647-12.047059s24.094118-12.047059 36.141176-12.047059c12.047059-6.023529 30.117647-6.023529 48.188236-6.023529 24.094118-6.023529 42.164706-6.023529 66.258823-6.02353 30.117647 0 54.211765 0 78.305883 6.02353 24.094118 0 42.164706 6.023529 54.211764 12.047058 18.070588 6.023529 30.117647 6.023529 42.164706 12.047059l36.141177 18.070589c12.047059 6.023529 24.094118 12.047059 30.117647 18.070588 12.047059 6.023529 24.094118 18.070588 30.117647 24.094117 12.047059 6.023529 18.070588 18.070588 24.094117 30.117647 6.023529 12.047059 6.023529 24.094118 6.02353 42.164706v367.435294c0 24.094118-6.023529 42.164706-24.094118 66.258824-12.047059 18.070588-30.117647 30.117647-54.211765 36.141176l120.470589 150.588236h-108.42353zM361.411765 746.917647l-24.094118 54.211765h349.364706l-24.094118-54.211765H361.411765zM271.058824 277.082353v156.611765h481.882352V277.082353h-481.882352z" fill="#FF7D4F" p-id="48666"></path>
  </svg>