<svg id="Capa_1" enable-background="new 0 0 512 512" 
height="512" viewBox="0 0 512 512" width="512" 
xmlns="http://www.w3.org/2000/svg"><g><g>
<g><path d="m467 512h-422c-24.813 0-45-20.187-45-45v-422c0-24.813 20.187-45 45-45h422c24.813 0 45 20.187 45 45v422c0 24.813-20.187 45-45 45zm-422-482c-8.271 0-15 6.729-15 15v422c0 8.271 6.729 15 15 15h422c8.271 0 15-6.729 15-15v-422c0-8.271-6.729-15-15-15z" 
fill="#faad14"/>
</g>
<g><path d="m400 512h-288c-8.284 0-15-6.716-15-15v-323c0-24.813 20.187-45 45-45h228c24.813 0 45 20.187 45 45v323c0 8.284-6.716 15-15 15zm-273-30h258v-308c0-8.271-6.729-15-15-15h-228c-8.271 0-15 6.729-15 15z" 
fill="#faad14"/></g><g><path d="m288 95h-64c-8.284 0-15-6.716-15-15s6.716-15 15-15h64c8.284 0 15 6.716 15 15s-6.716 15-15 15z" 
fill="#faad14"/></g><g><path d="m256 512c-8.284 0-15-6.716-15-15v-353c0-8.284 6.716-15 15-15s15 6.716 15 15v353c0 8.284-6.716 15-15 15z" 
fill="#faad14"/>
</g></g></g></svg>