<svg height="511pt" viewBox="1 -110 511.99994 511" width="511pt" xmlns="http://www.w3.org/2000/svg">
<path d="m84.433594 282.214844c-11.035156 0-19.980469-8.945313-19.980469-19.980469v-19.980469h39.960937v19.980469c0 11.035156-8.945312 19.980469-19.980468 19.980469zm0 0" 
fill="#898998"/><path d="m367.445312 282.214844c-11.035156 0-19.980468-8.945313-19.980468-19.980469v-19.980469h39.960937v19.980469c0 11.035156-8.945312 19.980469-19.980469 19.980469zm0 0" 
fill="#898998"/><path d="m448.429688 240.574219c0-14.519531-5.769532-28.441407-16.035157-38.710938l-90.890625-90.890625c-30.363281-30.359375-71.542968-47.417968-114.476562-47.417968h-217.035156v178.699218h436.757812c.546875 0 1.089844-.027344 1.636719-.042968.015625-.542969.042969-1.085938.042969-1.636719zm0 0" 
fill="#72d8ff"/><path d="m423.074219 86.414062h-139.230469c-15.449219 0-27.972656 12.523438-27.972656 27.96875 0 15.449219 12.523437 27.972657 27.972656 27.972657h195.171875zm0 0" 
fill="#72d8ff"/><path d="m9.992188 86.414062h155.84375c15.449218 0 27.972656 12.523438 27.972656 27.96875 0 15.449219-12.523438 27.972657-27.972656 27.972657h-155.84375" 
fill="#72d8ff"/><path d="m502.011719 272.222656h-106.316407c1.109376-3.125 1.71875-6.484375 1.71875-9.988281v-9.988281h49.335938c35.695312 0 64.734375-29.042969 64.734375-64.738282 0-17.289062-6.730469-33.546874-18.957031-45.773437l-6.445313-6.441406-55.941406-55.945313h-.003906l-28.5-28.503906c-32.464844-32.464844-75.628907-50.34375-121.542969-50.34375h-270.101562c-5.515626 0-9.98828175 4.472656-9.98828175 9.988281 0 5.519531 4.47265575 9.992188 9.98828175 9.992188h270.097656c40.578125 0 78.726562 15.800781 107.414062 44.492187l11.453125 11.449219h-115.113281c-20.933594 0-37.960938 17.03125-37.960938 37.960937 0 20.933594 17.027344 37.964844 37.960938 37.964844h191.035156l3.519532 3.515625c8.449218 8.453125 13.105468 19.691407 13.105468 31.648438 0 24.675781-20.074218 44.753906-44.753906 44.753906h-436.757812c-5.515626 0-9.98828175 4.472656-9.98828175 9.988281 0 5.519532 4.47265575 9.992188 9.98828175 9.992188h44.472656v9.988281c0 3.503906.609375 6.863281 1.71875 9.992187h-45.675782c-5.515624 0-9.988281 4.472657-9.988281 9.988282s4.472657 9.988281 9.988281 9.988281h167.832032c5.515625 0 9.988281-4.472656 9.988281-9.988281s-4.472656-9.988282-9.988281-9.988282h-65.65625c1.109375-3.128906 1.71875-6.488281 1.71875-9.992187v-9.988281h223.074218v9.988281c0 3.503906.609376 6.863281 1.71875 9.992187h-82.890624c-5.515626 0-9.988282 4.472657-9.988282 9.988282s4.472656 9.988281 9.988282 9.988281h245.707031c5.515625 0 9.988281-4.472656 9.988281-9.988281s-4.472656-9.992188-9.988281-9.992188zm-218.167969-139.855468c-9.914062 0-17.984375-8.066407-17.984375-17.984376 0-9.914062 8.070313-17.980468 17.984375-17.980468h135.09375l35.960938 35.964844zm-189.417969 129.867187c0 5.507813-4.484375 9.988281-9.992187 9.988281-5.507813 0-9.988282-4.480468-9.988282-9.988281v-9.988281h19.980469zm263.027344 0v-9.988281h19.980469v9.988281c0 5.507813-4.480469 9.988281-9.988282 9.988281-5.507812 0-9.992187-4.480468-9.992187-9.988281zm0 0"/><path d="m217.300781 272.222656c-2.628906 0-5.207031 1.070313-7.0625 2.929688-1.859375 1.855468-2.929687 4.433594-2.929687 7.0625 0 2.625 1.070312 5.203125 2.929687 7.0625 1.855469 1.855468 4.433594 2.925781 7.0625 2.925781 2.625 0 5.203125-1.066406 7.0625-2.925781 1.855469-1.859375 2.925781-4.4375 2.925781-7.0625 0-2.628906-1.070312-5.207032-2.925781-7.0625-1.859375-1.859375-4.4375-2.929688-7.0625-2.929688zm0 0"/><path d="m165.835938 132.367188h-155.84375c-5.515626 0-9.98828175 4.472656-9.98828175 9.988281s4.47265575 9.992187 9.98828175 9.992187h155.84375c20.929687 0 37.960937-17.03125 37.960937-37.964844 0-20.929687-17.03125-37.960937-37.960937-37.960937h-117.699219c-5.515625 0-9.988281 4.472656-9.988281 9.992187 0 5.515626 4.472656 9.988282 9.988281 9.988282h117.699219c9.914062 0 17.980468 8.066406 17.980468 17.980468 0 9.917969-8.066406 17.984376-17.980468 17.984376zm0 0"/><path d="m9.988281 76.421875c-2.625 0-5.203125 1.070313-7.0625 2.929687-1.855469 1.855469-2.925781 4.433594-2.925781 7.0625 0 2.625 1.070312 5.203126 2.925781 7.058594 1.859375 1.859375 4.4375 2.929688 7.0625 2.929688 2.640625 0 5.207031-1.070313 7.0625-2.929688 1.871094-1.855468 2.929688-4.433594 2.929688-7.058594 0-2.628906-1.058594-5.207031-2.929688-7.0625-1.855469-1.859374-4.421875-2.929687-7.0625-2.929687zm0 0"/></svg>