<?xml version="1.0" encoding="iso-8859-1"?>
<!-- Generator: Adobe Illustrator 19.0.0, SVG Export Plug-In . SVG Version: 6.00 Build 0)  -->
<svg version="1.1" id="Capa_1" xmlns="http://www.w3.org/2000/svg" xmlns:xlink="http://www.w3.org/1999/xlink" x="0px" y="0px"
	 viewBox="0 0 512 512" style="enable-background:new 0 0 512 512;" xml:space="preserve">
<path style="fill:#00A6FF;" d="M512,273.59c0,50.87-41.38,92.25-92.24,92.25H0V94.01h281.23c25.15,0,49.44,7.48,70.24,21.62
	l120.15,81.68c4.44,3.01,8.56,6.38,12.34,10.05C501.73,224.57,512,248.38,512,273.59z"/>
<path style="fill:#0088FF;" d="M512,273.59c0,50.87-41.38,92.25-92.24,92.25H256V94.01h25.23c25.15,0,49.44,7.48,70.24,21.62
	l120.15,81.68c4.44,3.01,8.56,6.38,12.34,10.05C501.73,224.57,512,248.38,512,273.59z"/>
<g>
	<path style="fill:#D1FEFB;" d="M483.96,207.36H260.58c-1.55,0-3.08-0.07-4.58-0.23c-24.02-2.3-42.86-22.6-42.86-47.21V94.01h68.09
		c25.15,0,49.44,7.48,70.24,21.62l120.15,81.68C476.06,200.32,480.18,203.69,483.96,207.36z"/>
	<rect x="60.34" y="128.16" style="fill:#D1FEFB;" width="92.31" height="79.2"/>
</g>
<rect x="244.33" y="240.65" style="fill:#FFAA20;" width="30" height="30"/>
<g>
	<rect x="300" y="240.65" style="fill:#FF9A00;" width="30" height="30"/>
	<rect x="355.67" y="240.65" style="fill:#FF9A00;" width="30" height="30"/>
</g>
<rect y="387.99" style="fill:#00459F;" width="425" height="30"/>
<rect x="256" y="240.65" style="fill:#FF9A00;" width="18.33" height="30"/>
<rect x="256" y="387.99" style="fill:#002D6B;" width="169" height="30"/>
<path style="fill:#85FDF5;" d="M260.58,207.36c-1.55,0-3.08-0.07-4.58-0.23V94.01h25.23c25.15,0,49.44,7.48,70.24,21.62
	l120.15,81.68c4.44,3.01,8.56,6.38,12.34,10.05H260.58z"/>
<g>
</g>
<g>
</g>
<g>
</g>
<g>
</g>
<g>
</g>
<g>
</g>
<g>
</g>
<g>
</g>
<g>
</g>
<g>
</g>
<g>
</g>
<g>
</g>
<g>
</g>
<g>
</g>
<g>
</g>
</svg>
