<?xml version="1.0" standalone="no"?><!DOCTYPE svg PUBLIC "-//W3C//DTD SVG 1.1//EN" "http://www.w3.org/Graphics/SVG/1.1/DTD/svg11.dtd"><svg t="1599185166229" class="icon" viewBox="0 0 1099 1024" version="1.1" xmlns="http://www.w3.org/2000/svg" p-id="2410" xmlns:xlink="http://www.w3.org/1999/xlink" width="137.375" height="128"><defs><style type="text/css"></style></defs><path d="M628.06 763.8v44.4c120.6-22.7 221.6-122.6 246.6-257.1h-44c-21.1 98.8-97.7 184.6-202.6 212.7z" p-id="2411" fill="#1296db"></path><path d="M776.704 512.512c0 112.128-91.136 203.264-203.264 203.264S370.176 624.64 370.176 512.512 460.8 309.248 573.44 309.248s203.264 91.136 203.264 203.264zM573.952 342.528c-94.208 0-170.496 76.288-170.496 170.496S479.744 683.52 573.952 683.52s170.496-76.288 170.496-170.496-76.288-170.496-170.496-170.496zM830.66 468.5h44c-25-134.5-126-234.5-246.6-257.1v44.4c104.9 28.1 181.5 113.9 202.6 212.7zM315.36 553.2h-44c25.1 134.5 126.1 234.4 246.6 257.1v-44.4c-104.8-28.1-181.5-113.9-202.6-212.7zM517.96 257.8v-44.4c-120.6 22.7-221.6 122.6-246.6 257.1h44c21.1-98.7 97.8-184.5 202.6-212.7z" p-id="2412" fill="#1296db"></path></svg>