<?xml version="1.0" standalone="no"?><!DOCTYPE svg PUBLIC "-//W3C//DTD SVG 1.1//EN" "http://www.w3.org/Graphics/SVG/1.1/DTD/svg11.dtd"><svg t="1606439722749" class="icon" viewBox="0 0 1024 1024" version="1.1" xmlns="http://www.w3.org/2000/svg" p-id="17258" xmlns:xlink="http://www.w3.org/1999/xlink" width="200" height="200"><defs><style type="text/css"></style></defs><path d="M875.768242 910.894545H147.021576a105.813333 105.813333 0 0 1-105.782303-105.782303V106.433939A105.813333 105.813333 0 0 1 147.021576 0.620606h728.746666a105.813333 105.813333 0 0 1 105.782303 105.782303v698.709333a105.813333 105.813333 0 0 1-105.782303 105.782303zM147.021576 42.945939c-34.909091 0-63.45697 28.547879-63.45697 63.45697v698.709333c0 34.909091 28.547879 63.45697 63.45697 63.45697h728.746666c34.909091 0 63.45697-28.547879 63.45697-63.45697V106.433939c0-34.909091-28.547879-63.45697-63.45697-63.456969H147.021576z" fill="#1E92D2" p-id="17259"></path><path d="M804.057212 538.561939H218.732606a63.643152 63.643152 0 0 1-63.45697-63.456969V164.367515c0-34.909091 28.547879-63.45697 63.45697-63.45697h585.324606c34.909091 0 63.45697 28.547879 63.45697 63.45697V475.073939c0 34.909091-28.547879 63.45697-63.45697 63.45697zM218.732606 143.235879a21.224727 21.224727 0 0 0-21.162667 21.100606v310.768485c0 11.636364 9.526303 21.162667 21.162667 21.162666h585.324606a21.224727 21.224727 0 0 0 21.162667-21.162666V164.367515a21.224727 21.224727 0 0 0-21.162667-21.162667H218.732606z" fill="#1E92D2" p-id="17260"></path><path d="M180.844606 701.253818a84.185212 84.185212 0 1 0 168.401455 0 84.185212 84.185212 0 0 0-168.401455 0z" fill="#D7EBFF" p-id="17261"></path><path d="M265.060848 806.601697a105.347879 105.347879 0 1 1 0-210.695758 105.347879 105.347879 0 0 1 0 210.695758z m0-168.401455A63.208727 63.208727 0 0 0 202.007273 701.284848c0 34.691879 28.361697 63.022545 63.053575 63.022546a63.208727 63.208727 0 0 0 63.022546-63.022546 63.208727 63.208727 0 0 0-63.022546-63.053575z" fill="#1E92D2" p-id="17262"></path><path d="M674.381576 701.253818a84.185212 84.185212 0 1 0 168.370424 0 84.185212 84.185212 0 0 0-168.370424 0z" fill="#D7EBFF" p-id="17263"></path><path d="M758.566788 806.601697a105.347879 105.347879 0 1 1 0-210.695758 105.347879 105.347879 0 0 1 0 210.695758z m0-168.401455a63.208727 63.208727 0 0 0-63.022546 63.053576c0 34.691879 28.330667 63.022545 63.022546 63.022546a63.208727 63.208727 0 0 0 63.053576-63.022546 63.208727 63.208727 0 0 0-63.053576-63.053576z m-287.464727 151.055516a21.224727 21.224727 0 0 1-21.162667-21.162667v-135.168c0-11.636364 9.526303-21.162667 21.162667-21.162667 11.636364 0 21.131636 9.526303 21.131636 21.162667v135.168a21.224727 21.224727 0 0 1-21.131636 21.162667z m81.423515 0a21.224727 21.224727 0 0 1-21.131637-21.162667v-135.168c0-11.636364 9.495273-21.162667 21.131637-21.162667 11.636364 0 21.162667 9.526303 21.162666 21.162667v135.168a21.224727 21.224727 0 0 1-21.162666 21.162667z" fill="#1E92D2" p-id="17264"></path><path d="M287.030303 961.939394h449.939394a23.272727 23.272727 0 1 1 0 46.545454H287.030303a23.272727 23.272727 0 1 1 0-46.545454z" fill="#1E92D2" p-id="17265"></path></svg>