<?xml version="1.0" standalone="no"?><!DOCTYPE svg PUBLIC "-//W3C//DTD SVG 1.1//EN" "http://www.w3.org/Graphics/SVG/1.1/DTD/svg11.dtd"><svg t="1606439748835" class="icon" viewBox="0 0 1484 1024" version="1.1" xmlns="http://www.w3.org/2000/svg" p-id="18178" xmlns:xlink="http://www.w3.org/1999/xlink" width="289.84375" height="200"><defs><style type="text/css"></style></defs><path d="M749.568 179.2h-66.56v133.12h66.56V179.2z m-486.4 296.96l112.64 71.68 35.84-51.2-112.64-71.68-35.84 51.2z m-76.8 266.24h138.24v-61.44h-138.24v61.44z m558.08 0l348.16-414.72-419.84 343.04 71.68 71.68z m266.24-476.16l-51.2-40.96-76.8 107.52 51.2 40.96 76.8-107.52zM729.088 0c-394.24 0-716.8 317.44-716.8 701.44 0 92.16 51.2 291.84 51.2 291.84h1315.84c40.96-92.16 66.56-189.44 66.56-291.84 0-384-322.56-701.44-716.8-701.44z m588.8 901.12H130.048c-20.48-56.32-30.72-138.24-30.72-199.68 0-332.8 291.84-614.4 629.76-614.4 337.92 0 629.76 286.72 629.76 619.52 0 61.44-20.48 138.24-40.96 194.56z m-266.24-419.84l35.84 56.32 112.64-71.68-35.84-56.32-112.64 71.68z m92.16 261.12h133.12v-61.44h-133.12v61.44zM421.888 271.36l81.92 107.52 51.2-40.96-81.92-107.52-51.2 40.96z m327.68 522.24l-133.12-117.76 133.12-97.28c-10.24 0-20.48-5.12-25.6-5.12-71.68 0-133.12 56.32-133.12 128s56.32 128 133.12 128c71.68 0 133.12-56.32 133.12-128 0-10.24 0-25.6-5.12-35.84l-102.4 128z" fill="#5382EF" p-id="18179"></path><path d="M447.488 870.4h-25.6l-25.6-40.96v40.96h-25.6v-117.76h25.6v76.8l25.6-40.96h25.6l-30.72 35.84 30.72 46.08z m138.24 0h-25.6v-46.08c0-10.24-5.12-20.48-15.36-20.48-5.12 0-10.24 0-10.24 5.12-5.12 5.12-5.12 10.24-5.12 15.36v46.08h-20.48v-46.08c0-10.24-5.12-15.36-15.36-15.36-5.12 0-10.24 0-10.24 5.12-5.12 5.12-5.12 10.24-5.12 15.36v40.96h-20.48v-76.8h25.6v10.24c5.12-5.12 5.12-10.24 10.24-10.24s10.24-5.12 15.36-5.12c10.24 0 20.48 5.12 20.48 15.36 5.12-10.24 15.36-15.36 25.6-15.36 15.36 0 25.6 10.24 25.6 30.72l5.12 51.2z" fill="#5382EF" p-id="18180"></path></svg>