<?xml version="1.0" standalone="no"?><!DOCTYPE svg PUBLIC "-//W3C//DTD SVG 1.1//EN" "http://www.w3.org/Graphics/SVG/1.1/DTD/svg11.dtd"><svg t="1608859496840" class="icon" viewBox="0 0 1024 1024" version="1.1" xmlns="http://www.w3.org/2000/svg" p-id="5280" xmlns:xlink="http://www.w3.org/1999/xlink" width="200" height="200"><defs><style type="text/css"></style></defs><path d="M512 962.14c248.617 0 450.14-201.523 450.14-450.15 0-248.607-201.523-450.13-450.14-450.13C263.373 61.86 61.85 263.383 61.85 512S263.373 962.14 512 962.14z m379.218-381.747c-14.398 80.773-52.47 152.986-106.578 208.722-51.784 53.37-118.262 91.617-192.614 107.807 3.737-38.564 8.222-91.997 15.288-137.636C626.729 633.63 665.989 579.03 775.762 557.71c30.822-5.99 63.14-6.133 95.457-5.406 16.026-0.533 25.19 6.174 19.999 28.088zM146.053 382.648a399.268 399.268 0 0 1 93.307-155.402c70.318-72.5 171.49-108.728 272.65-108.728 101.14 0 202.291 36.229 272.62 108.728a398.991 398.991 0 0 1 93.296 155.402c5.305 19.886-1.76 29.276-21.094 28.201-63.468-2.519-200.223-4.526-228.29-5.98 24.094 28.18 38.737 65.229 38.737 105.738 0 44.176-17.377 84.194-45.475 113.152a156.14 156.14 0 0 1-33.895 26.46 151.5 151.5 0 0 1-151.808 0 156.13 156.13 0 0 1-33.905-26.47c-28.098-28.948-45.475-68.966-45.475-113.152 0-40.51 14.622-77.547 38.748-105.728-28.089 1.454-164.833 3.461-228.29 5.98-19.354 1.075-26.39-8.315-21.126-28.2z m6.707 169.657c32.318-0.717 64.645-0.584 95.458 5.406C358 579.031 397.27 633.631 416.696 759.286c7.035 45.64 11.54 99.072 15.268 137.625-74.363-16.169-140.82-54.425-192.614-107.796-54.098-55.736-92.17-127.949-106.568-208.722-5.192-21.914 3.953-28.62 19.978-28.088z" fill="#3b5999" p-id="5281"></path><path d="M424.858 600.566c8.601 8.857 18.432 16.384 29.255 22.333a120.72 120.72 0 0 0 115.774 0 124.109 124.109 0 0 0 29.235-22.333c22.313-22.979 36.096-54.733 36.096-89.805 0-35.052-13.783-66.806-36.096-89.764-44.954-46.326-129.31-46.326-174.264 0-22.293 22.958-36.076 54.712-36.076 89.764 0 35.072 13.783 66.826 36.076 89.805z m67.85-138.414a49.777 49.777 0 0 1 38.594 0c18.484 7.823 31.52 26.583 31.52 48.455 0 20.654-11.613 38.523-28.448 47.043a49.9 49.9 0 0 1-44.748 0c-16.866-8.52-28.457-26.389-28.457-47.043 0-21.872 13.035-40.632 31.539-48.455z" fill="#3b5999" p-id="5282"></path></svg>