<svg width="578" height="257" xmlns="http://www.w3.org/2000/svg">
 <!-- Created with Method Draw - http://github.com/duopixel/Method-Draw/ -->

 <g>
  <title>background</title>
  <rect fill="rgb(255,255,255,0)" id="canvas_background" height="259" width="580" y="-1" x="-1"/>
  <g display="none" overflow="visible" y="0" x="0" height="100%" width="100%" id="canvasGrid">
   <rect fill="url(#gridpattern)" stroke-width="0" y="0" x="0" height="100%" width="100%"/>
  </g>
 </g>
 <g>
  <title>Layer 1</title>
  <defs>
   <style type="text/css"/>
  </defs>
  <g stroke="null" transform="rotate(89.88648223876953 18.20543670654296,129.45620727539062) " id="svg_5">
   <path stroke="null" id="svg_4" fill="rgb(89,126,247,0.8)" d="m147.675898,111.417691c-38.006663,22.90892 -82.3857,36.07704 -129.824489,36.07704c-47.135342,0 -91.261508,-13.013504 -129.116447,-35.664731"/>
  </g>
  <defs>
   <style type="text/css"/>
  </defs>
  <g transform="rotate(179.87684631347656 17.340171813964847,127.30626678466795) " stroke="null" id="svg_13">
   <path stroke="null" id="svg_11" fill="#faad14" d="m11.949451,140.188201c0.110833,-0.190807 0.206201,-0.350756 0.29796,-0.510705q3.54511,-6.057489 7.095891,-12.111378c0.114957,-0.19595 0.113926,-0.328127 0,-0.523049q-3.626044,-6.173208 -7.2392,-12.354645c-0.04588,-0.078689 -0.088151,-0.159435 -0.147434,-0.266924c1.059873,0 2.0883,0.003086 3.116212,-0.0036c0.14331,0 0.165992,0.102861 0.213418,0.184121q1.494957,2.545298 2.983213,5.091624q2.16511,3.69837 4.334344,7.394169c0.094852,0.160978 0.093821,0.271039 0,0.431502q-3.65749,6.231324 -7.300545,12.469335c-0.089697,0.154292 -0.185581,0.205722 -0.360852,0.205722c-0.910377,-0.008743 -1.820755,-0.004114 -2.732163,-0.004114l-0.260844,-0.002057z"/>
   <path stroke="null" id="svg_12" fill="#faad14" d="m18.482413,114.421499c1.031005,0 2.06201,0.002572 3.088375,-0.002572c0.154651,0 0.172693,0.120862 0.223728,0.205722q1.488771,2.533468 2.971356,5.069508q2.171812,3.709171 4.346716,7.416284c0.085058,0.145034 0.080418,0.246867 0,0.387786q-3.656974,6.231324 -7.300545,12.469335c-0.1031,0.173835 -0.206201,0.227837 -0.399514,0.225266c-0.89285,-0.0108 -1.786216,-0.004629 -2.680613,-0.004629l-0.282495,0c0.058252,-0.102861 0.098976,-0.174864 0.140732,-0.246352q3.622951,-6.19018 7.250542,-12.37676c0.115988,-0.196979 0.111349,-0.329155 -0.002578,-0.523049q-3.630168,-6.184523 -7.24848,-12.377788c-0.041756,-0.071488 -0.106709,-0.133205 -0.107225,-0.242752zm-12.976742,25.766701c0.862951,-1.475028 1.701158,-2.907368 2.537303,-4.33868q2.422861,-4.141187 4.852424,-8.280317c0.11238,-0.190807 0.124752,-0.322469 0.007217,-0.523049q-3.639963,-6.193266 -7.262914,-12.396818c-0.037632,-0.064288 -0.074232,-0.129605 -0.109287,-0.190807c0.05619,-0.057602 0.109802,-0.036001 0.154651,-0.036001c0.953679,0 1.907359,0 2.860523,-0.004114c0.134546,0 0.211356,0.032916 0.283011,0.154292q3.675532,6.292012 7.363437,12.577339c0.074232,0.126519 0.055674,0.205722 -0.009795,0.318355q-3.670377,6.265783 -7.333537,12.53568c-0.07681,0.131148 -0.154651,0.18875 -0.318581,0.187207c-0.992342,-0.007715 -1.987262,-0.003086 -3.024453,-0.003086z"/>
  </g>
  <!-- <g opacity="0.2" transform="rotate(-0.5219857692718506 558.2292480468766,119.5306854248063) " stroke="null" id="svg_16">
   <path transform="rotate(-0.5219857692718506 558.2011718749967,119.53140258788986) " stroke="null" id="svg_14" fill="#faad14" d="m552.838559,132.413337c0.110833,-0.190808 0.206201,-0.350757 0.29796,-0.510706q3.545111,-6.057489 7.095891,-12.111378c0.114957,-0.19595 0.113926,-0.328127 0,-0.523049q-3.626044,-6.173207 -7.2392,-12.354644c-0.04588,-0.078689 -0.088151,-0.159435 -0.147434,-0.266925c1.059873,0 2.0883,0.003086 3.116212,-0.0036c0.14331,0 0.165992,0.102861 0.213418,0.184121q1.494957,2.545298 2.983213,5.091624q2.16511,3.69837 4.334344,7.394169c0.094852,0.160978 0.093821,0.271039 0,0.431502q-3.65749,6.231325 -7.300545,12.469335c-0.089698,0.154292 -0.185581,0.205722 -0.360852,0.205722c-0.910377,-0.008743 -1.820755,-0.004114 -2.732163,-0.004114l-0.260844,-0.002057z"/>
   <path transform="rotate(-0.5219857692718506 558.2292480468766,119.5306854248063) " stroke="null" id="svg_15" fill="#faad14" d="m559.371515,106.646379c1.031005,0 2.06201,0.002572 3.088375,-0.002571c0.154651,0 0.172693,0.120862 0.223728,0.205722q1.488771,2.533468 2.971356,5.069508q2.171812,3.709171 4.346717,7.416284c0.085057,0.145035 0.080418,0.246867 0,0.387787q-3.656975,6.231324 -7.300546,12.469335c-0.1031,0.173835 -0.206201,0.227837 -0.399514,0.225265c-0.89285,-0.0108 -1.786216,-0.004628 -2.680613,-0.004628l-0.282495,0c0.058252,-0.102862 0.098976,-0.174864 0.140732,-0.246353q3.622951,-6.19018 7.250542,-12.37676c0.115988,-0.196979 0.111348,-0.329155 -0.002578,-0.523048q-3.630168,-6.184523 -7.248479,-12.377789c-0.041756,-0.071488 -0.106709,-0.133205 -0.107225,-0.242752zm-12.976742,25.766702c0.862951,-1.475028 1.701158,-2.907369 2.537303,-4.338681q2.422861,-4.141187 4.852424,-8.280317c0.112379,-0.190807 0.124752,-0.32247 0.007217,-0.523049q-3.639963,-6.193266 -7.262914,-12.396817c-0.037631,-0.064289 -0.074232,-0.129605 -0.109286,-0.190808c0.05619,-0.057602 0.109802,-0.036001 0.154651,-0.036001c0.953679,0 1.907359,0 2.860523,-0.004115c0.134546,0 0.211356,0.032916 0.28301,0.154292q3.675533,6.292012 7.363437,12.577339c0.074232,0.126519 0.055674,0.205722 -0.009795,0.318355q-3.670377,6.265783 -7.333537,12.53568c-0.07681,0.131148 -0.154651,0.18875 -0.318581,0.187207c-0.992342,-0.007714 -1.987261,-0.003085 -3.024452,-0.003085z"/>
  </g> -->
  <g transform="rotate(-90 559.1145629882814,127.94106292724605) " stroke="null" id="svg_18">
   <path stroke="null" id="svg_17" fill="rgb(89,126,247,0.8)" d="m688.585031,109.902539c-38.006663,22.90892 -82.385701,36.07704 -129.824489,36.07704c-47.135342,0 -91.261508,-13.013504 -129.116447,-35.664731"/>
  </g>
  <g opacity="0.41" transform="rotate(-0.4532468616962433 558.249267578122,128.821289062501) " stroke="null" id="svg_21">
   <path stroke="null" id="svg_19" fill="#faad14" d="m552.858539,141.703352c0.110833,-0.190808 0.206201,-0.350757 0.297961,-0.510706q3.54511,-6.057489 7.09589,-12.111378c0.114957,-0.19595 0.113926,-0.328127 0,-0.523049q-3.626044,-6.173207 -7.2392,-12.354644c-0.04588,-0.078689 -0.088151,-0.159435 -0.147434,-0.266925c1.059873,0 2.088301,0.003086 3.116212,-0.0036c0.14331,0 0.165992,0.102861 0.213418,0.184121q1.494957,2.545298 2.983213,5.091624q2.16511,3.69837 4.334344,7.394169c0.094853,0.160978 0.093822,0.271039 0,0.431502q-3.657489,6.231325 -7.300545,12.469335c-0.089697,0.154292 -0.185581,0.205722 -0.360852,0.205722c-0.910377,-0.008743 -1.820754,-0.004114 -2.732163,-0.004114l-0.260844,-0.002057z"/>
   <path stroke="null" id="svg_20" fill="#faad14" d="m559.391501,115.93665c1.031005,0 2.06201,0.002572 3.088375,-0.002571c0.154651,0 0.172694,0.120862 0.223728,0.205722q1.488771,2.533468 2.971356,5.069508q2.171812,3.709171 4.346717,7.416284c0.085058,0.145035 0.080418,0.246867 0,0.387787q-3.656974,6.231324 -7.300545,12.469335c-0.103101,0.173835 -0.206201,0.227837 -0.399515,0.225265c-0.89285,-0.0108 -1.786216,-0.004628 -2.680612,-0.004628l-0.282496,0c0.058252,-0.102862 0.098977,-0.174864 0.140732,-0.246353q3.622951,-6.19018 7.250542,-12.37676c0.115988,-0.196979 0.111348,-0.329155 -0.002578,-0.523048q-3.630168,-6.184523 -7.248479,-12.377789c-0.041756,-0.071488 -0.106709,-0.133205 -0.107225,-0.242752zm-12.976742,25.766702c0.862951,-1.475028 1.701158,-2.907369 2.537303,-4.338681q2.422861,-4.141187 4.852424,-8.280317c0.11238,-0.190807 0.124752,-0.32247 0.007217,-0.523049q-3.639962,-6.193266 -7.262913,-12.396817c-0.037632,-0.064289 -0.074233,-0.129605 -0.109287,-0.190808c0.05619,-0.057602 0.109802,-0.036001 0.154651,-0.036001c0.953679,0 1.907359,0 2.860523,-0.004115c0.134546,0 0.211356,0.032916 0.283011,0.154292q3.675532,6.292012 7.363436,12.577339c0.074232,0.126519 0.055674,0.205722 -0.009794,0.318355q-3.670378,6.265783 -7.333538,12.53568c-0.07681,0.131148 -0.154651,0.18875 -0.31858,0.187207c-0.992342,-0.007714 -1.987262,-0.003085 -3.024453,-0.003085z"/>
  </g>
 </g>
</svg>